<svg id="Layer_1" data-name="Layer 1" xmlns="http://www.w3.org/2000/svg" xmlns:xlink="http://www.w3.org/1999/xlink" viewBox="0 0 454.75 236.59"><defs><style>.cls-1{fill:#49be55;}.cls-17,.cls-2,.cls-28,.cls-38,.cls-4,.cls-44,.cls-46,.cls-48,.cls-67{fill:none;stroke-miterlimit:10;}.cls-2{stroke-width:0.93px;stroke:url(#linear-gradient);}.cls-3{fill:url(#linear-gradient-2);}.cls-4{stroke-width:2.67px;stroke:url(#linear-gradient-3);}.cls-5{fill:url(#linear-gradient-4);}.cls-6{fill:url(#linear-gradient-5);}.cls-7{fill:url(#linear-gradient-6);}.cls-8{fill:url(#linear-gradient-7);}.cls-9{fill:url(#linear-gradient-8);}.cls-10{fill:url(#linear-gradient-9);}.cls-11{fill:url(#linear-gradient-10);}.cls-12{fill:url(#linear-gradient-11);}.cls-13{fill:url(#linear-gradient-12);}.cls-14{fill:url(#linear-gradient-13);}.cls-15{fill:url(#linear-gradient-14);}.cls-16{fill:url(#linear-gradient-15);}.cls-17{stroke-width:1.55px;stroke:url(#linear-gradient-16);}.cls-18{fill:url(#linear-gradient-17);}.cls-19{fill:url(#linear-gradient-18);}.cls-20{fill:url(#linear-gradient-19);}.cls-21{fill:url(#linear-gradient-20);}.cls-22{fill:url(#linear-gradient-21);}.cls-23{fill:url(#linear-gradient-22);}.cls-24{fill:#fff;}.cls-25{fill:url(#linear-gradient-23);}.cls-26{fill:url(#linear-gradient-24);}.cls-27{fill:#191337;}.cls-28{stroke:#f3f6fd;}.cls-28,.cls-44,.cls-67{stroke-linecap:round;}.cls-29{fill:url(#linear-gradient-25);}.cls-30{fill:url(#linear-gradient-26);}.cls-31{fill:url(#linear-gradient-27);}.cls-32{fill:url(#linear-gradient-28);}.cls-33{fill:url(#linear-gradient-29);}.cls-34{fill:url(#linear-gradient-30);}.cls-35{fill:url(#linear-gradient-31);}.cls-36{fill:url(#linear-gradient-32);}.cls-37{fill:#1f1844;}.cls-38{stroke:#17ff44;stroke-width:1.95px;}.cls-39{fill:url(#linear-gradient-33);}.cls-40{fill:url(#linear-gradient-34);}.cls-41{fill:url(#linear-gradient-35);}.cls-42{fill:url(#linear-gradient-36);}.cls-43{fill:url(#linear-gradient-37);}.cls-44,.cls-48{stroke:#fff;}.cls-45{fill:url(#linear-gradient-38);}.cls-46{stroke:#d6d9e8;stroke-width:5.49px;}.cls-47{fill:url(#linear-gradient-39);}.cls-48{stroke-width:0.76px;}.cls-49{fill:url(#linear-gradient-40);}.cls-50{fill:url(#linear-gradient-41);}.cls-51,.cls-62,.cls-63,.cls-64,.cls-65,.cls-68,.cls-69{opacity:0.5;isolation:isolate;}.cls-51{fill:url(#linear-gradient-42);}.cls-52{fill:url(#linear-gradient-43);}.cls-53{fill:url(#linear-gradient-44);}.cls-54{fill:#a174db;}.cls-55{fill:url(#linear-gradient-45);}.cls-56{fill:url(#linear-gradient-46);}.cls-57{fill:url(#linear-gradient-47);}.cls-58{fill:url(#linear-gradient-48);}.cls-59{fill:url(#linear-gradient-49);}.cls-60{fill:url(#linear-gradient-50);}.cls-61{fill:url(#linear-gradient-51);}.cls-62{fill:url(#linear-gradient-52);}.cls-63{fill:url(#linear-gradient-53);}.cls-64{fill:url(#linear-gradient-54);}.cls-65{fill:url(#linear-gradient-55);}.cls-66{fill:#e9e8ee;}.cls-67{stroke:#e8e7ed;stroke-width:4px;}.cls-68{fill:url(#linear-gradient-56);}.cls-69{fill:url(#linear-gradient-57);}.cls-70{fill:#e8e7ed;}</style><linearGradient id="linear-gradient" x1="363.36" y1="117.05" x2="353.3" y2="193.36" gradientTransform="matrix(1, 0, 0, -1, 0, 650)" gradientUnits="userSpaceOnUse"><stop offset="0" stop-color="#3f3d9e"/><stop offset="0.99" stop-color="#423e9f"/></linearGradient><linearGradient id="linear-gradient-2" x1="369.19" y1="146.78" x2="411.57" y2="156.51" gradientTransform="matrix(1, 0, 0, -1, 0, 650)" gradientUnits="userSpaceOnUse"><stop offset="0.01" stop-color="#bbc0d9"/><stop offset="1" stop-color="#d6dbf8"/></linearGradient><linearGradient id="linear-gradient-3" x1="634.07" y1="548.8" x2="667.89" y2="542.61" gradientTransform="matrix(0.98, -0.18, -0.18, -0.98, -157.03, 1163.02)" gradientUnits="userSpaceOnUse"><stop offset="0" stop-color="#bac6d8"/><stop offset="0.99" stop-color="#d6dbf8"/></linearGradient><linearGradient id="linear-gradient-4" x1="363.11" y1="145" x2="350.11" y2="157.76" gradientTransform="matrix(1, 0, 0, -1, 0, 650)" gradientUnits="userSpaceOnUse"><stop offset="0" stop-color="#1f1844"/><stop offset="0.99" stop-color="#3d3c99"/></linearGradient><linearGradient id="linear-gradient-5" x1="362.69" y1="134.26" x2="347.57" y2="139.53" xlink:href="#linear-gradient-4"/><linearGradient id="linear-gradient-6" x1="363.82" y1="145.03" x2="377.58" y2="155.86" xlink:href="#linear-gradient-4"/><linearGradient id="linear-gradient-7" x1="362.82" y1="134.25" x2="376.17" y2="140.65" xlink:href="#linear-gradient-4"/><linearGradient id="linear-gradient-8" x1="365.21" y1="124.22" x2="347.44" y2="126.34" xlink:href="#linear-gradient-4"/><linearGradient id="linear-gradient-9" x1="363.23" y1="122.96" x2="375.37" y2="130.38" xlink:href="#linear-gradient-4"/><linearGradient id="linear-gradient-10" x1="367.8" y1="173.02" x2="363.64" y2="156.03" gradientTransform="matrix(1, 0, 0, -1, 0, 650)" gradientUnits="userSpaceOnUse"><stop offset="0.01" stop-color="#3d3c99"/><stop offset="1" stop-color="#1f1844"/></linearGradient><linearGradient id="linear-gradient-11" x1="1873.98" y1="1295.51" x2="1879.47" y2="1295.51" gradientTransform="matrix(0.7, -0.71, -0.71, -0.7, -39.81, 2744.6)" gradientUnits="userSpaceOnUse"><stop offset="0" stop-color="#e0e4eb"/><stop offset="0.99" stop-color="#f3f6fd"/></linearGradient><linearGradient id="linear-gradient-12" x1="2994.41" y1="1218.19" x2="2999.95" y2="1218.19" gradientTransform="matrix(0.31, -0.95, -0.95, -0.31, 599.74, 3739.8)" xlink:href="#linear-gradient-11"/><linearGradient id="linear-gradient-13" x1="142.76" y1="-1949.94" x2="148.25" y2="-1949.94" gradientTransform="matrix(0.63, 0.78, 0.78, -0.63, 1797.75, -846.52)" xlink:href="#linear-gradient-11"/><linearGradient id="linear-gradient-14" x1="370.81" y1="134.81" x2="376.53" y2="140.69" xlink:href="#linear-gradient-2"/><linearGradient id="linear-gradient-15" x1="291.05" y1="-2490.52" x2="296.68" y2="-2490.52" gradientTransform="matrix(0.5, 0.87, 0.77, -0.45, 2142.81, -860.89)" xlink:href="#linear-gradient-11"/><linearGradient id="linear-gradient-16" x1="724.55" y1="642.07" x2="733.45" y2="642.07" gradientTransform="matrix(0.97, -0.23, -0.23, -0.97, -194.63, 1306.52)" xlink:href="#linear-gradient-11"/><linearGradient id="linear-gradient-17" x1="3741.98" y1="969.08" x2="3747.73" y2="969.08" gradientTransform="matrix(0.04, -0.93, -1, -0.04, 1175.46, 4049.69)" xlink:href="#linear-gradient-11"/><linearGradient id="linear-gradient-18" x1="370.94" y1="125.59" x2="376.65" y2="131.93" xlink:href="#linear-gradient-2"/><linearGradient id="linear-gradient-19" x1="562.99" y1="-3164.34" x2="569.22" y2="-3164.34" gradientTransform="matrix(0.35, 0.94, 0.74, -0.28, 2517.49, -889.16)" xlink:href="#linear-gradient-11"/><linearGradient id="linear-gradient-20" x1="368.68" y1="173.27" x2="364.52" y2="156.28" gradientTransform="matrix(1, 0, 0, -1, 0, 650)" gradientUnits="userSpaceOnUse"><stop offset="0" stop-color="#e6eaf1"/><stop offset="0.99" stop-color="#f3f6fd"/></linearGradient><linearGradient id="linear-gradient-21" x1="351.69" y1="98.73" x2="383.35" y2="106" gradientTransform="matrix(1, 0, 0, -1, 0, 650)" gradientUnits="userSpaceOnUse"><stop offset="0.11" stop-color="#8988d5"/><stop offset="0.56" stop-color="#9d9ce8"/><stop offset="1" stop-color="#a7a5ee"/></linearGradient><linearGradient id="linear-gradient-22" x1="361.01" y1="246.23" x2="507.75" y2="246.23" gradientTransform="matrix(1, 0, 0, -1, -141.72, 316.28)" gradientUnits="userSpaceOnUse"><stop offset="0.01" stop-color="#bbbfd9"/><stop offset="1" stop-color="#d6dbf8"/></linearGradient><linearGradient id="linear-gradient-23" x1="513.71" y1="125.06" x2="526" y2="125.06" gradientTransform="matrix(1, 0, 0, -1, 0, 650)" xlink:href="#linear-gradient-22"/><linearGradient id="linear-gradient-24" x1="525.69" y1="106.54" x2="519.95" y2="116.63" gradientTransform="matrix(1, 0, 0, -1, -141.72, 316.28)" gradientUnits="userSpaceOnUse"><stop offset="0" stop-color="#ffd0b9"/><stop offset="0.04" stop-color="#facab2"/><stop offset="0.35" stop-color="#d7a384"/><stop offset="0.62" stop-color="#be8662"/><stop offset="0.85" stop-color="#af744d"/><stop offset="1" stop-color="#a96e46"/></linearGradient><linearGradient id="linear-gradient-25" x1="559.26" y1="127.69" x2="571.76" y2="127.69" gradientTransform="matrix(1, 0, 0, -1, 0, 650)" xlink:href="#linear-gradient-22"/><linearGradient id="linear-gradient-26" x1="542.29" y1="124.2" x2="553.89" y2="124.2" gradientTransform="matrix(1, 0, 0, -1, 0, 650)" xlink:href="#linear-gradient-22"/><linearGradient id="linear-gradient-27" x1="542.96" y1="150.65" x2="542.96" y2="227.46" gradientTransform="matrix(1, 0, 0, -1, 0, 650)" gradientUnits="userSpaceOnUse"><stop offset="0" stop-color="#201f4f"/><stop offset="0.39" stop-color="#3d3c99"/><stop offset="1" stop-color="#403da0"/></linearGradient><linearGradient id="linear-gradient-28" x1="567.08" y1="187.4" x2="574.06" y2="186.7" gradientTransform="matrix(1, 0, 0, -1, 0, 650)" gradientUnits="userSpaceOnUse"><stop offset="0.11" stop-color="#343381"/><stop offset="0.56" stop-color="#3d3c99"/><stop offset="1" stop-color="#403da0"/></linearGradient><linearGradient id="linear-gradient-29" x1="476.73" y1="95.79" x2="483.98" y2="109.31" gradientTransform="matrix(1, 0, 0, -1, 0, 650)" xlink:href="#linear-gradient-24"/><linearGradient id="linear-gradient-30" x1="490.62" y1="206.45" x2="553.22" y2="215.06" gradientTransform="matrix(1, 0, 0, -1, 0, 650)" gradientUnits="userSpaceOnUse"><stop offset="0" stop-color="#bdbdbd"/><stop offset="0.55" stop-color="#ccc"/><stop offset="0.91" stop-color="#d9d9d9"/></linearGradient><linearGradient id="linear-gradient-31" x1="526.71" y1="207.12" x2="572.64" y2="232.57" gradientTransform="matrix(1, 0, 0, -1, 0, 650)" gradientUnits="userSpaceOnUse"><stop offset="0" stop-color="#a96e46"/><stop offset="0.15" stop-color="#af744d"/><stop offset="0.38" stop-color="#be8662"/><stop offset="0.65" stop-color="#d7a384"/><stop offset="0.96" stop-color="#facab2"/><stop offset="1" stop-color="#ffd0b9"/></linearGradient><linearGradient id="linear-gradient-32" x1="445.89" y1="200.2" x2="508.51" y2="200.2" gradientTransform="matrix(1, 0, 0, -1, 0, 650)" gradientUnits="userSpaceOnUse"><stop offset="0.01" stop-color="#bbbfd9"/><stop offset="0.29" stop-color="#cacde2"/><stop offset="0.84" stop-color="#f2f3f8"/><stop offset="1" stop-color="#fff"/></linearGradient><linearGradient id="linear-gradient-33" x1="583.43" y1="133.2" x2="591.82" y2="133.2" xlink:href="#linear-gradient-21"/><linearGradient id="linear-gradient-34" x1="439.92" y1="133.2" x2="447.76" y2="133.2" xlink:href="#linear-gradient-21"/><linearGradient id="linear-gradient-35" x1="517.73" y1="187.07" x2="561.66" y2="187.07" gradientTransform="matrix(1, 0, 0, -1, -141.72, 316.28)" xlink:href="#linear-gradient-30"/><linearGradient id="linear-gradient-36" x1="515.83" y1="174.68" x2="515.83" y2="182.62" xlink:href="#linear-gradient-28"/><linearGradient id="linear-gradient-37" x1="499.97" y1="187.81" x2="515.05" y2="207.53" gradientTransform="matrix(1, 0, 0, -1, 0, 650)" gradientUnits="userSpaceOnUse"><stop offset="0" stop-color="#fff"/><stop offset="0.16" stop-color="#f2f3f8"/><stop offset="0.71" stop-color="#cacde2"/><stop offset="0.99" stop-color="#bbbfd9"/></linearGradient><linearGradient id="linear-gradient-38" x1="537.39" y1="187.85" x2="583.31" y2="213.29" xlink:href="#linear-gradient-31"/><linearGradient id="linear-gradient-39" x1="529.89" y1="191.08" x2="542.95" y2="191.08" xlink:href="#linear-gradient-37"/><linearGradient id="linear-gradient-40" x1="508.82" y1="239.41" x2="554.74" y2="264.85" xlink:href="#linear-gradient-31"/><linearGradient id="linear-gradient-41" x1="545.08" y1="247.51" x2="531.68" y2="234.37" gradientTransform="matrix(1, 0, 0, -1, 0, 650)" gradientUnits="userSpaceOnUse"><stop offset="0" stop-color="#ffd0b9" stop-opacity="0"/><stop offset="1" stop-color="#a96e46"/></linearGradient><linearGradient id="linear-gradient-42" x1="294.13" y1="283.49" x2="322.04" y2="283.49" gradientTransform="matrix(1, 0, 0, -1, 0, 650)" gradientUnits="userSpaceOnUse"><stop offset="0" stop-color="#a7a5ee"/><stop offset="0.44" stop-color="#9d9ce8"/><stop offset="0.89" stop-color="#8988d5"/></linearGradient><linearGradient id="linear-gradient-43" x1="197.66" y1="96.77" x2="209.48" y2="96.77" gradientTransform="matrix(1, 0, 0, -1, -141.72, 316.28)" gradientUnits="userSpaceOnUse"><stop offset="0" stop-color="#753200"/><stop offset="1" stop-color="#a04400"/></linearGradient><linearGradient id="linear-gradient-44" x1="-1847.02" y1="-903.01" x2="-1854.72" y2="-889.48" gradientTransform="translate(-1798.57 1033.88) rotate(130.54)" xlink:href="#linear-gradient-43"/><linearGradient id="linear-gradient-45" x1="274.16" y1="288.59" x2="290.87" y2="288.59" gradientTransform="matrix(1, 0, 0, -1, 0, 650)" xlink:href="#linear-gradient-43"/><linearGradient id="linear-gradient-46" x1="250.76" y1="273.69" x2="275.81" y2="273.69" gradientTransform="matrix(1, 0, 0, -1, 0, 650)" xlink:href="#linear-gradient-43"/><linearGradient id="linear-gradient-47" x1="-426.24" y1="-18.58" x2="-396.95" y2="-5.03" gradientTransform="translate(-165.2 458.84) rotate(163.74)" xlink:href="#linear-gradient-43"/><linearGradient id="linear-gradient-48" x1="-395.66" y1="-5.51" x2="-397" y2="-6.83" gradientTransform="translate(-165.2 458.84) rotate(163.74)" xlink:href="#linear-gradient-43"/><linearGradient id="linear-gradient-49" x1="-395.59" y1="-12.97" x2="-405.95" y2="-23.13" gradientTransform="translate(-165.2 458.84) rotate(163.74)" gradientUnits="userSpaceOnUse"><stop offset="0" stop-color="#a04400"/><stop offset="1" stop-color="#753200"/></linearGradient><linearGradient id="linear-gradient-50" x1="203.7" y1="257.66" x2="252.71" y2="257.66" gradientTransform="matrix(1, 0, 0, -1, 0, 650)" gradientUnits="userSpaceOnUse"><stop offset="0.01" stop-color="#2d1582"/><stop offset="1" stop-color="#4822d1"/></linearGradient><linearGradient id="linear-gradient-51" x1="217.25" y1="269.46" x2="242.33" y2="269.46" xlink:href="#linear-gradient-50"/><linearGradient id="linear-gradient-52" x1="242.2" y1="274.28" x2="322.04" y2="274.28" xlink:href="#linear-gradient-42"/><linearGradient id="linear-gradient-53" x1="141.72" y1="251.61" x2="195.98" y2="251.61" gradientTransform="matrix(1, 0, 0, -1, -141.72, 316.28)" xlink:href="#linear-gradient-42"/><linearGradient id="linear-gradient-54" x1="255.7" y1="202.25" x2="280.76" y2="202.25" gradientTransform="matrix(1, 0, 0, -1, -141.72, 316.28)" xlink:href="#linear-gradient-42"/><linearGradient id="linear-gradient-55" x1="308.94" y1="202.25" x2="334" y2="202.25" gradientTransform="matrix(1, 0, 0, -1, -141.72, 316.28)" xlink:href="#linear-gradient-42"/><linearGradient id="linear-gradient-56" x1="305.92" y1="255.08" x2="309.28" y2="255.08" gradientTransform="matrix(1, 0.04, 0.04, -1, 13.14, 676.88)" xlink:href="#linear-gradient-42"/><linearGradient id="linear-gradient-57" x1="305.92" y1="245.47" x2="309.28" y2="245.47" gradientTransform="matrix(1, 0.04, 0.04, -1, 13.14, 676.88)" xlink:href="#linear-gradient-42"/></defs><title>GoTechBg2</title><g id="Слой_2" data-name="Слой 2"><path class="cls-1" d="M364,535.72s12.57-14,11.24-19.51S381.75,504,381.9,496c.17-9.09-4.69-6.66-6.37-10.55-2.5-5.77,3.06-10.87-5.34-13.08-5.73-1.51-9.77,1.43-9.23-5.66s-2-15.86-6.63-19c-6.56-4.55-19.91-4.91-15.41,4.26,4.72,9.64.56,25.51-.54,29.86C326.74,527.68,364,535.72,364,535.72Z" transform="translate(-141.72 -333.72)"/><path class="cls-2" d="M350,457.08c1.44,11.86,16.29,30.81,9.58,43.47s3.47,32.28,3.47,32.28" transform="translate(-141.72 -333.72)"/><path class="cls-3" d="M402.14,509.22c-8.17,2.89.67,13.45-8.26,18.2s-20.37,7.17-20.89,4.86c0-.15-.52-1.68-1-3.92-.11-.52-.23-1.08-.35-1.66l-.09-.5a44.77,44.77,0,0,1-.68-5.4v-.17c0-.72-.06-1.45,0-2.17s.05-1.4.12-2.06a11.7,11.7,0,0,1,2.51-6.64,7.25,7.25,0,0,1,1.3-1.17c6.21-4.31,8.68-2.22,8.64-8.59-.09-10.93,3-12.57,6.69-11.49s6.51,1.4,7.06-2.65-2.79-22.05,5.55-22c14.43.05,7.12,18.45,5.67,21.41-3.5,7.16,3.77,8.28,5.49,13.5S410.3,506.33,402.14,509.22Z" transform="translate(-141.72 -333.72)"/><path class="cls-4" d="M371.39,548s-2.19-20.12,13.14-31.39c6.92-5.09,19.8-23.27,18.62-43" transform="translate(-141.72 -333.72)"/><path class="cls-5" d="M349.9,492c1.9-3.23,15.59,10.09,13.2,13S348.08,495.11,349.9,492Z" transform="translate(-141.72 -333.72)"/><path class="cls-6" d="M346.44,510.21c.27-3.76,16.8,1.65,15.95,5.36S346.17,513.79,346.44,510.21Z" transform="translate(-141.72 -333.72)"/><path class="cls-7" d="M377.64,493.6c2.93,2.29-11.52,14.74-14.1,12S374.85,491.42,377.64,493.6Z" transform="translate(-141.72 -333.72)"/><path class="cls-8" d="M376.12,509.28c2.47,2.79-11.49,9.77-13.59,6.62S373.78,506.64,376.12,509.28Z" transform="translate(-141.72 -333.72)"/><path class="cls-9" d="M347.54,523.71c-.73-3.45,17.49-1.47,17.65,2.09S348.22,527,347.54,523.71Z" transform="translate(-141.72 -333.72)"/><path class="cls-10" d="M375.23,519.7c1.89,3.19-11.17,11.17-12.68,7.68S373.44,516.65,375.23,519.7Z" transform="translate(-141.72 -333.72)"/><path class="cls-11" d="M368.05,476.5c3.67.27-1.08,18.8-4.72,17.95S364.53,476.23,368.05,476.5Z" transform="translate(-141.72 -333.72)"/><path class="cls-12" d="M351.29,491.16c1.91-3.23,15.6,10.09,13.2,13S349.46,494.23,351.29,491.16Z" transform="translate(-141.72 -333.72)"/><path class="cls-13" d="M347.54,509.43c.28-3.76,16.8,1.65,16,5.36S347.28,513,347.54,509.43Z" transform="translate(-141.72 -333.72)"/><path class="cls-14" d="M378.19,492.78c2.93,2.29-11.52,14.74-14.1,12S375.41,490.59,378.19,492.78Z" transform="translate(-141.72 -333.72)"/><path class="cls-15" d="M371.23,515.68a11.65,11.65,0,0,1,2.4-6.52c1.75-.34,3.21-.27,3.86.47C378.85,511.14,375.15,514,371.23,515.68Z" transform="translate(-141.72 -333.72)"/><path class="cls-16" d="M376.81,508.69c2.46,2.8-11.49,9.78-13.59,6.63S374.47,506,376.81,508.69Z" transform="translate(-141.72 -333.72)"/><path class="cls-17" d="M364.32,490.08a109.16,109.16,0,0,1-.85,18c-1.28,8.4,1.94,22.62,7.17,27.17" transform="translate(-141.72 -333.72)"/><path class="cls-18" d="M347.54,523.06c-.73-3.45,17.49-1.46,17.65,2.09S348.22,526.35,347.54,523.06Z" transform="translate(-141.72 -333.72)"/><path class="cls-19" d="M371.89,525.8c0-.16-.05-.33-.09-.49a45,45,0,0,1-.64-5.31v-.16c3-1.65,6.15-2.47,7-1.05C379.19,520.58,375.56,523.87,371.89,525.8Z" transform="translate(-141.72 -333.72)"/><path class="cls-20" d="M377.46,517.42c1.89,3.19-11.17,11.17-12.68,7.68S375.67,514.37,377.46,517.42Z" transform="translate(-141.72 -333.72)"/><path class="cls-21" d="M368.93,476.26c3.67.27-1.08,18.8-4.72,17.94S365.42,476,368.93,476.26Z" transform="translate(-141.72 -333.72)"/><path class="cls-22" d="M372.08,565.17H360.76a10.2,10.2,0,0,1-10.11-8.84l-2.79-20.85a2.35,2.35,0,0,1,2-2.64l.31,0h32.49a2.34,2.34,0,0,1,2.34,2.36,1.51,1.51,0,0,1,0,.3l-2.79,20.85A10.2,10.2,0,0,1,372.08,565.17Z" transform="translate(-141.72 -333.72)"/><rect class="cls-23" x="219.29" y="19.67" width="146.75" height="100.77" rx="5.33" ry="5.33"/><rect class="cls-24" x="223.46" y="23.99" width="138.4" height="92.12" rx="3.18" ry="3.18"/><path class="cls-25" d="M516.55,551.44a2.85,2.85,0,0,1-2.82-2.87,2.56,2.56,0,0,1,0-.39l6.7-49.74,5.56.63L519.37,549C519.17,550.4,516.55,551.44,516.55,551.44Z" transform="translate(-141.72 -333.72)"/><polygon class="cls-26" points="372.98 202.54 375.46 207.03 380.98 210.6 383.29 210.29 386.4 203.31 385.47 200.13 381.51 198.27 372.98 202.54"/><path class="cls-27" d="M521.83,476c-4.65.79-18,3.1-21.49,7.44-2.68,3.35-4.65,13.18-9.35,24.71-1.36-3.42-3.09-9.64-4-12.89-1.2-4.53-2.33-14.64,8-17.26C501.8,476.29,516.7,475.68,521.83,476Z" transform="translate(-141.72 -333.72)"/><path class="cls-28" d="M513.73,475.69s-11.47,1.16-16.65,7.49c-4.08,5-7.74,20.1-7.74,20.1" transform="translate(-141.72 -333.72)"/><path class="cls-29" d="M566.14,547.79l-6.88-50.69,4.66-1.86,7.78,51.57c.32,1.84-1.09,2.17-2.48,2.42S566.47,549.66,566.14,547.79Z" transform="translate(-141.72 -333.72)"/><path class="cls-30" d="M548.17,553.86l-5.88-57.78H548l5.85,57.37c.13,1.78-1.23,1.71-2.57,1.91S548.32,555.88,548.17,553.86Z" transform="translate(-141.72 -333.72)"/><path class="cls-31" d="M569.49,489.36c-1.22,9-14.43,10.24-29.79,10.73-.47.24-17.43.13-25.34-2.53l.28-60.79c0-5.12,2.19-13.61,9.68-13.73,12.57-.21,35.91-2.13,45,.69,2.09,7.51,3.61,15.79.13,37.46C567.5,473.59,570.07,485.05,569.49,489.36Z" transform="translate(-141.72 -333.72)"/><path class="cls-32" d="M566,427.5c2.79,8.38,2.43,13.22-1.28,26.75-6.2,22.55,4,34.12-17.52,45.49,13-.74,21.22-2.75,22.26-10.39.58-4.31-2-15.76,0-28.17,2.56-16,7.35-29,1-36.71C568.71,422.34,565.09,424.67,566,427.5Z" transform="translate(-141.72 -333.72)"/><path class="cls-33" d="M488.72,543.26a68.19,68.19,0,0,1-8.5-4.19s-6.05,6.51-6.72,7.15c2.24.89,1.11,7.36,3,8.38s6.76-3.41,9.11-2.87C485.8,549.67,488.08,544.39,488.72,543.26Z" transform="translate(-141.72 -333.72)"/><path class="cls-27" d="M524.46,532.77l-9.77,4.73c-1.22-.93-1.86-3.16-2.72-4.48-1.53-2.38-3.17-2-5.73-5.75l-6.38-10.87L513.31,496,522,519.52c.74,1.91.46,7.16.46,7.16C523.13,528.21,526,532.16,524.46,532.77Z" transform="translate(-141.72 -333.72)"/><path class="cls-34" d="M569.49,445.94c-3.28.55-13.41,1.9-16.58.51.33,3.13.67,8.7.67,8.7s-27.07-2.59-37.24,1.29c0-.34,0-.73,0-1.15.12-3.63.72-10.15.72-10.15s-4.9-.93-6.35-2.41a1.48,1.48,0,0,1-.25-.31,50.14,50.14,0,0,1,6.6-16.05c3.49-5.38,8.44-7.83,17.39-9.1l11.85-.83s11.79-1.24,17.22,4.7S569.49,445.94,569.49,445.94Z" transform="translate(-141.72 -333.72)"/><path class="cls-35" d="M517.1,445.13s0,5.69.5,9.77c-9.37,4.22-11.37,7.57-11.25,8.26l-2-8.2,3.92-.43,2.48-11.81C512.2,444.18,517.1,445.13,517.1,445.13Z" transform="translate(-141.72 -333.72)"/><path class="cls-36" d="M505.23,467.28H465l-7.37-31.71a2.65,2.65,0,0,1,2-3.19,2.48,2.48,0,0,1,.61-.07h37.62Z" transform="translate(-141.72 -333.72)"/><path class="cls-37" d="M558.52,475.16s5,13.18-10.79,18.71c-10.18,3.57-29.32,2.83-29.32,2.83l-21.57,40a6.76,6.76,0,0,1-3.13,2.92l-.6.27c-.74,1-2.94,6.51-4.12,6l-11.31-5.29c-1-.41,1.5-4.07,2-5.05.33-.68-.22-4.76.29-6.88,3.49-14.66,13.56-40.65,17-44.89s8.85-6.24,13.5-7a87.16,87.16,0,0,0,11.26-3Z" transform="translate(-141.72 -333.72)"/><path class="cls-38" d="M516.82,474.54s-1.69-.21-4.32-.39" transform="translate(-141.72 -333.72)"/><path class="cls-39" d="M589.64,559.77h-4c-1.21,0-2.19-.66-2.19-1.47V473.83h8.38V558.3C591.82,559.11,590.84,559.77,589.64,559.77Z" transform="translate(-141.72 -333.72)"/><path class="cls-40" d="M446.46,559.77h-5.24c-.71,0-1.3-.42-1.3-.93v-85h7.84v85C447.76,559.35,447.17,559.77,446.46,559.77Z" transform="translate(-141.72 -333.72)"/><polygon class="cls-41" points="415.42 137.89 376.01 133.57 376.01 120.53 419.95 124.2 415.42 137.89"/><path class="cls-42" d="M440.06,467.21H591.6a4.85,4.85,0,0,1,4.86,4.86h0V476H435.19v-3.94A4.86,4.86,0,0,1,440.06,467.21Z" transform="translate(-141.72 -333.72)"/><path class="cls-43" d="M522.26,465.3l-.43,1.89h-16.6L496.51,434a1.33,1.33,0,0,1,.95-1.61,1.65,1.65,0,0,1,.32,0h0a1.34,1.34,0,0,1,1.29,1L504.33,455l2,8.21h0v.1h14.25a1.68,1.68,0,0,1,1.73,1.61A2,2,0,0,1,522.26,465.3Z" transform="translate(-141.72 -333.72)"/><circle class="cls-24" cx="337.92" cy="116.92" r="3.38"/><line class="cls-44" x1="411.22" y1="112.55" x2="410.12" y2="106.17"/><line class="cls-44" x1="375.39" y1="111.41" x2="376.37" y2="106.17"/><path class="cls-45" d="M568.72,446.08c-.05,4-.34,13-2.05,16.89-2.22,5-5.27,5-13.6,3.57s-22.12-6.36-26.42-6.36a9.91,9.91,0,0,0-7,3.11H506.28c-.12-.69-.07-4.24,10.1-8,1.71-.72,6.62-1.32,10.87-1.62,11.68-.85,26.06,1.29,26.06,1.29s0-5.37-.38-8.51C556.06,447.84,565.81,446.52,568.72,446.08Z" transform="translate(-141.72 -333.72)"/><path class="cls-46" d="M541.47,455.7s4.25-.35,4.25,3.22-4.25,3.6-4.25,3.6" transform="translate(-141.72 -333.72)"/><path class="cls-47" d="M542,467.19H531.38l-1.48-15.06a1.4,1.4,0,0,1,1.29-1.49H541.5A1.39,1.39,0,0,1,543,452a.24.24,0,0,1,0,.12Z" transform="translate(-141.72 -333.72)"/><path class="cls-44" d="M531.19,420.74s.66,4.19,7.87,3.8a10.53,10.53,0,0,0,9.41-6.05" transform="translate(-141.72 -333.72)"/><path class="cls-27" d="M460,548.91s-4.41-1-6.1-.37a3.31,3.31,0,0,0-2.24,3.21c-.13,1.35,1.29,3.26,6.78,5.29a167.67,167.67,0,0,0,17.14,5.09,31.68,31.68,0,0,0,7.45.75,3.4,3.4,0,0,0,3.05-2.58,8.83,8.83,0,0,1,.54-1.57c.46-.93.29-2,.56-2.79s.93-6.05-.56-6.81-3.89,3.75-7.19,3.38-3.66-4.5-3.66-4.5,1.57-1.43.73-2.44.12-1.81-.55-2.21-3,1-3,1-7.61,3.12-10.6,4.38A8.82,8.82,0,0,1,460,548.91Z" transform="translate(-141.72 -333.72)"/><path class="cls-44" d="M453.61,552.84c9.78,5.59,21.14,5.7,21.14,5.7,3.18.74,6.36,2.86,10.43.43l.36-.19" transform="translate(-141.72 -333.72)"/><path class="cls-27" d="M515.18,538.2s5.64,1.7,6.75,3.54,4.87-3.77,3.21-6.94.6-2.66,2.16-1.37,2.82.36,3.91,1.28a5.35,5.35,0,0,1,1.69,6.83c-1.63,3.86-5.29,5.52-6.74,8.41s-.93,8.77-3.16,11-6.48,5-11.26,2.67-.52-8.78.6-10.38,1.34-7.08,1.4-9.31S513.43,538.86,515.18,538.2Z" transform="translate(-141.72 -333.72)"/><path class="cls-48" d="M527.17,534.14s3.16,1,2.06,4.82-5.08,6.82-5.49,10.9-.38,7.71-4.33,10.67-5.68,2.54-5.68,2.54" transform="translate(-141.72 -333.72)"/><path class="cls-49" d="M546.77,416c-.16-1-.64-3.69-1.06-6.79-.28-2.15-.58-4.37-.81-6.09a3,3,0,0,0,0-.43,21.7,21.7,0,0,1-.22-2.79l.1-.18c2.83-5.06,2.35-8.38.39-9.49a2.8,2.8,0,0,0-.83-.32h0s.78-6.44-1.86-11.64c-3.47-6.87-13.37-6.94-19.41-5.19s-11.32,9-9.25,15.73c.82,2.66,2.06,5.08,2.37,7.52s-.69,6.47,1.18,10.42c2.67,5.67,8.79,7.18,12.56,7.16a11.32,11.32,0,0,0,1.43-.09l.17,1,.14.83.14.9a10,10,0,0,0,.58,2.47,6.64,6.64,0,0,0,7.23,3.61C544.86,421.81,547.2,418.52,546.77,416Z" transform="translate(-141.72 -333.72)"/><path class="cls-50" d="M544.91,403.13a21.77,21.77,0,0,1-13.28,12.57l-.14-.83-.16-1c4.1-2.25,8.69-6.42,13.41-14.11a1.62,1.62,0,0,1-.1.18,23.83,23.83,0,0,0,.22,2.79A1.16,1.16,0,0,1,544.91,403.13Z" transform="translate(-141.72 -333.72)"/><path class="cls-37" d="M540.75,396.58l.24,1.73c-3.91,2.23-12.81,8.63-14.49,8.89-2.14.33-2.86-2.15-4-1.58s-1,2.07-1.78,2.07a12.16,12.16,0,0,1-4-2.65s1.4,4.19,1.69,4.94c.68,1.72,4.71,5.18,4.71,5.18a2,2,0,0,0,1.56.51l5-.57,2.54-1.46c3.53-1.89,11.71-9.34,11.74-10.36a24.24,24.24,0,0,0-.57-5.63Z" transform="translate(-141.72 -333.72)"/></g><g id="_01" data-name=" 01"><path class="cls-51" d="M321.53,397.24s-9.76-14.33-27.4-16c0-12,.53-45.42.53-45.42S322.19,337.94,322,346,321.53,397.24,321.53,397.24Z" transform="translate(-141.72 -333.72)"/><polygon class="cls-52" points="67.76 215.55 67.76 222.27 56.19 223.48 55.94 220.52 57.29 216.35 67.76 215.55"/><path class="cls-37" d="M224.62,565.68v1.6a3,3,0,0,1-2.79,3,33.56,33.56,0,0,1-7.49-.37,80.89,80.89,0,0,1-13.77-3.53c-2.31-.77-3.42-.77-3.75-2.09a17.74,17.74,0,0,1,.08-4.44L210.66,563Z" transform="translate(-141.72 -333.72)"/><polygon class="cls-53" points="90.79 206.97 93.05 213.06 92.19 219.35 90.5 220.85 83.41 218.72 81.67 216.03 83.48 206.5 90.79 206.97"/><path class="cls-37" d="M222.41,554.24V557a1.93,1.93,0,0,0,1.67,1.91c1.9.27,5,.71,6.61,1,2.53.49,8.58,2.69,12,2.91s7.26.28,9-.82S253,558.3,253,558.3Z" transform="translate(-141.72 -333.72)"/><path class="cls-54" d="M223.41,547s-1.76,6.71-.77,7.69,8.41,1.49,10.39,2.75,10.05,3.25,14.34,2.92,5.5-.89,5.61-2-8.52-2.75-10.06-3.9-2.47-5.22-4.62-6.61-.49-3.85-2.75-4-1.65,3.53-5,3.74A30.57,30.57,0,0,1,223.41,547Z" transform="translate(-141.72 -333.72)"/><path class="cls-37" d="M209.59,435.45s-4.41,4.41-4.19,14.55,2.86,35.47,1.1,43.19-5.95,19.17-6.83,32.17-1.76,26.22-1.76,26.22h12.78s-2.43-13.44,1.32-22.7,8.15-24.24,9.92-28.86a75.5,75.5,0,0,0,2.42-7.22S221,526.24,221,534s.44,14.54,2.44,14.32,8.58-3.09,9.46-3.75,2-11.68,1.77-15.64,1.76-25.78,1.76-25.78,5.51-16.75,7.05-24,1.1-37.46,1.1-37.46l-2.42-4.85Z" transform="translate(-141.72 -333.72)"/><path class="cls-54" d="M205.73,553.14c.17-.14.37-.33.58-.53,1.35-1.3,3.53-3.55,5.15-2,1.87,1.77,1.22,7,6.83,9.8,1.68.84,7.6,4.76,6.06,6s-1.1,1-9.26.66-18.28-6.61-18.28-6.61.38-8.26,1.1-8.26-.11,3.08,2.2,3.42S205.73,553.14,205.73,553.14Z" transform="translate(-141.72 -333.72)"/><path class="cls-55" d="M290.79,356.74c-.06.32-1.22.38-2.87.66a5,5,0,0,0-2.64,1.48c-.61.39-1,1.27-.55,1.49s2.53-1.49,3-1.49,1,.72,1.1,1a10.89,10.89,0,0,1,1,2,.79.79,0,0,1-.62.93h-.09V364c0,.77-1.16,1.71-1.33,1.82s-.82-.22-1.1-.78-1.21,1.33-1.21,1.33a21.05,21.05,0,0,0-2.42,3.42,10.33,10.33,0,0,1-2.85,2.9,26.06,26.06,0,0,1-6.12-2,28.52,28.52,0,0,0,.65-4.84,3.52,3.52,0,0,1,1.45-2.88,28.36,28.36,0,0,1,.76-3.17,7.58,7.58,0,0,0,0-3.33c-.33-.82.31-1.05.64-1a4.17,4.17,0,0,1,1.8,1.73c.37-.49,1.11-1.49,1.28-1.81s2.75-3.09,3-3.42,2-2.32,3.09-1.54c.58.42-.66,1.76-1.33,2.59s-3.8,5.45-3.3,5.57,2.42-2.1,3-2.49a2.65,2.65,0,0,1,1.5-.6,15.31,15.31,0,0,1,3.58,0C291.12,355.52,290.84,356.4,290.79,356.74Z" transform="translate(-141.72 -333.72)"/><path class="cls-54" d="M280.76,372.73c-.59,7.64-4.7,24.82-8.52,29.23s-25.56-3.08-25.56-3.08,2.1,42.6-3.49,42.74S208,438.1,208,438.1s1.91-12.64,2.3-19.54-7.49-29.52-8.61-34,.14-9.69,2.2-11.6,12.67-4.2,14.38-4.37c13.66-1.37,21.74,8.45,23.85,9.8,4.07-.78,8.52-1.76,8.52-1.76l.09.44,1.32,6.37.44,2.21a88.78,88.78,0,0,0,12.21,4.11l3.15-6.8,1-2.25,3.41-7.39,1.36-2.95.44.23.44.21a26.49,26.49,0,0,0,5.68,1.82Z" transform="translate(-141.72 -333.72)"/><path class="cls-56" d="M274,371.22c-.33,0,1.54.61.11,1.6a4.06,4.06,0,0,1-1.8.51c-1.8.17-4.1-.12-4.64,0-.78.22-6.17,4-5.68,6.5,1.41,0,5.5-.23,6.9.85a1.11,1.11,0,0,1,.48.88c0,.93-.66,1.28-1.52,1.39a12.73,12.73,0,0,1-2.89-.18c-1-.11-2.92-.4-3.58.21a5.27,5.27,0,0,1-4.79.67,10.6,10.6,0,0,0-4.55-.24l-1.32-6.37c1.65-.79,4.54-2.16,5.28-2.59,1.11-.6,5-2.42,6-2.91s4.84-2,5.51-2.26,7.38-1,8.1-.61c.51.28-.41,1.49-1.09,2.13A1.33,1.33,0,0,1,274,371.22Z" transform="translate(-141.72 -333.72)"/><path class="cls-57" d="M219.71,370.68c-.1-.81-.31-2.88-.67-5.29-.24-1.66-.5-3.37-.7-4.7,0-.11,0-.22-.05-.33a17.15,17.15,0,0,0-.45-2.13l-.11-.11c-3.18-3.15-3.52-5.73-2.32-7a2.41,2.41,0,0,1,.54-.41h0a18,18,0,0,1-1.12-9c1.12-5.83,8.47-8,13.31-8s10.35,4.28,10.25,9.69c0,2.16-.44,4.22-.15,6.09s1.9,4.66,1.35,8c-.77,4.78-5,7.22-7.79,8a8,8,0,0,1-1.08.23l.09.8.08.64.08.7a7.49,7.49,0,0,1,.1,1.95,5.14,5.14,0,0,1-4.59,4.24C222.39,374.57,220,372.62,219.71,370.68Z" transform="translate(-141.72 -333.72)"/><path class="cls-58" d="M218,352.77s-1.21-1.24-1.77-.08.82,2.81.82,2.81Z" transform="translate(-141.72 -333.72)"/><path class="cls-37" d="M220,355l.19,1.32c3.38.82,11.37,3.67,12.67,3.5,1.66-.21,1.66-2.2,2.65-2s1.17,1.32,1.76,1.16a9.3,9.3,0,0,0,2.43-2.84s-.12,3.42-.19,4c-.15,1.43-2.39,4.85-2.39,4.85a1.59,1.59,0,0,1-1.06.72l-3.87.66-2.2-.54c-3-.65-10.71-4.41-10.95-5.18a19.7,19.7,0,0,1-.78-4.31Z" transform="translate(-141.72 -333.72)"/><path class="cls-59" d="M218.37,360.92a16.83,16.83,0,0,0,12.55,6.48l-.07-.65-.1-.79c-3.52-.79-7.83-2.91-13-7.61l.11.11a19.15,19.15,0,0,1,.44,2.13C218.33,360.7,218.36,360.81,218.37,360.92Z" transform="translate(-141.72 -333.72)"/><path class="cls-60" d="M217.07,396.3c-2.39.14-13.37-7.46-13.37-7.46s8.49,8.93,12.59,9.92,36.42-12.89,36.42-12.89S219.47,396.13,217.07,396.3Z" transform="translate(-141.72 -333.72)"/><path class="cls-61" d="M217.25,379s1,3.08,2,3.41,16.18-2.64,20.65-3.41l2.45-.44-21.91,2.28-3.17-2.28" transform="translate(-141.72 -333.72)"/><path class="cls-62" d="M242.2,356.07v45.06S284,413,321.53,397.24c0-25,.51-51.22.51-51.22C309.78,366.77,242.2,356.07,242.2,356.07Z" transform="translate(-141.72 -333.72)"/><polygon class="cls-63" points="54.26 95.67 0 86.55 0 33.68 54.26 37.1 54.26 95.67"/><polygon class="cls-64" points="139.04 127.69 113.98 134.08 113.98 98.41 139.04 93.97 139.04 127.69"/><polygon class="cls-65" points="192.28 127.69 167.22 134.08 167.22 98.41 192.28 93.97 192.28 127.69"/><polygon class="cls-66" points="11.01 83.22 4.55 82.1 4.55 48.2 11.01 48.84 11.01 83.22"/><polygon class="cls-66" points="22.89 85.29 16.09 84.11 16.09 60.49 22.89 61.32 22.89 85.29"/><polygon class="cls-66" points="35.38 87.46 28.24 86.22 28.24 54.55 35.38 55.32 35.38 87.46"/><polygon class="cls-66" points="48.56 89.75 41.02 88.44 41.02 44.34 48.56 44.98 48.56 89.75"/><polyline class="cls-67" points="104.47 61.32 110.28 50.69 119.16 61.32 131.59 42.26 139.94 61.32 144.72 51.79 150.59 56.52 160 33.9"/><path class="cls-66" d="M330.39,436.83l-4,1c-1.07.26-1.89-.81-1.82-2.39h0c.07-1.58,1-3.05,2.07-3.28l4-.86c1-.22,1.77.84,1.72,2.36h0C332.28,435.16,331.41,436.59,330.39,436.83Z" transform="translate(-141.72 -333.72)"/><path class="cls-68" d="M332.07,433.7c-.07,1.39-.89,2.71-1.8,2.94s-1.67-.74-1.61-2.16.88-2.74,1.83-3S332.15,432.3,332.07,433.7Z" transform="translate(-141.72 -333.72)"/><path class="cls-66" d="M330,446.43l-4,1.15c-1.07.32-1.9-.71-1.83-2.29h0c.07-1.59,1-3.09,2.07-3.38l4-1c1-.27,1.78.75,1.72,2.27h0C331.87,444.66,331,446.13,330,446.43Z" transform="translate(-141.72 -333.72)"/><path class="cls-69" d="M331.65,443.22c-.06,1.39-.88,2.75-1.8,3s-1.67-.65-1.61-2.07.88-2.78,1.83-3S331.71,441.82,331.65,443.22Z" transform="translate(-141.72 -333.72)"/><path class="cls-70" d="M297.72,347.85a6.39,6.39,0,0,0,6.39,6.38v-1.76a4.62,4.62,0,0,1-2-8.81l-.56-1.69A6.4,6.4,0,0,0,297.72,347.85Z" transform="translate(-141.72 -333.72)"/><path class="cls-70" d="M308.72,347.61v.24a4.65,4.65,0,0,1-.23,1.43l1.73.35a6.23,6.23,0,0,0,.26-1.61Z" transform="translate(-141.72 -333.72)"/><path class="cls-70" d="M310.49,347.85a6.4,6.4,0,0,0-6.38-6.37v1.77a4.62,4.62,0,0,1,4.61,4.37l1.76.44C310.48,348,310.49,347.91,310.49,347.85Z" transform="translate(-141.72 -333.72)"/><line class="cls-67" x1="117.07" y1="101.74" x2="136.31" y2="98.6"/><line class="cls-67" x1="117.07" y1="107.24" x2="136.31" y2="103.92"/><line class="cls-67" x1="117.07" y1="112.75" x2="136.31" y2="109.24"/><line class="cls-67" x1="117.07" y1="118.26" x2="136.31" y2="114.56"/><line class="cls-67" x1="117.07" y1="123.77" x2="136.31" y2="119.87"/><line class="cls-67" x1="117.07" y1="129.28" x2="136.31" y2="125.19"/><line class="cls-67" x1="169.81" y1="101.1" x2="175.86" y2="100.17"/><line class="cls-67" x1="169.81" y1="105.13" x2="177.39" y2="103.85"/><line class="cls-67" x1="169.81" y1="109.15" x2="178.91" y2="107.54"/><line class="cls-67" x1="169.81" y1="113.18" x2="180.44" y2="111.22"/><line class="cls-67" x1="169.81" y1="117.2" x2="181.97" y2="114.9"/><line class="cls-67" x1="169.81" y1="121.23" x2="183.49" y2="118.58"/><line class="cls-67" x1="169.81" y1="125.26" x2="185.02" y2="122.27"/><line class="cls-67" x1="169.81" y1="129.28" x2="186.54" y2="125.95"/></g></svg>